<svg width="40" height="40" viewBox="0 0 40 40" fill="none" xmlns="http://www.w3.org/2000/svg">
<path d="M20 0.5C16.1433 0.5 12.3731 1.64366 9.16639 3.78634C5.95963 5.92903 3.46027 8.97451 1.98436 12.5377C0.508449 16.1008 0.122284 20.0216 0.874696 23.8043C1.62711 27.5869 3.4843 31.0615 6.21143 33.7886C8.93855 36.5157 12.4131 38.3729 16.1957 39.1253C19.9784 39.8777 23.8992 39.4916 27.4623 38.0156C31.0255 36.5397 34.071 34.0404 36.2137 30.8336C38.3564 27.6269 39.5 23.8567 39.5 20C39.4901 14.8313 37.4325 9.87718 33.7776 6.22237C30.1228 2.56755 25.1687 0.509911 20 0.5ZM27.425 22.1937L21.0688 28.5687C20.782 28.846 20.3988 29.001 20 29.001C19.6012 29.001 19.218 28.846 18.9313 28.5687L12.575 22.1937C12.3165 21.9084 12.1776 21.5346 12.187 21.1497C12.1965 20.7647 12.3537 20.3982 12.6259 20.1259C12.8982 19.8536 13.2647 19.6965 13.6497 19.687C14.0346 19.6775 14.4084 19.8165 14.6938 20.075L18.5 23.8812V12.5C18.5 12.1022 18.658 11.7206 18.9393 11.4393C19.2207 11.158 19.6022 11 20 11C20.3978 11 20.7794 11.158 21.0607 11.4393C21.342 11.7206 21.5 12.1022 21.5 12.5V23.8812L25.3063 20.075C25.5916 19.8165 25.9654 19.6775 26.3504 19.687C26.7353 19.6965 27.1018 19.8536 27.3741 20.1259C27.6464 20.3982 27.8035 20.7647 27.813 21.1497C27.8225 21.5346 27.6835 21.9084 27.425 22.1937Z" fill="#D24C4C"/>
</svg>
