<svg width="22" height="22" viewBox="0 0 22 22" fill="none" xmlns="http://www.w3.org/2000/svg">
<g clip-path="url(#clip0_79_345)">
<path d="M10.9998 3.92337C11.1619 3.92337 11.3173 3.85899 11.4319 3.74438C11.5465 3.62978 11.6109 3.47434 11.6109 3.31226V1.16726C11.6109 1.00519 11.5465 0.849748 11.4319 0.735143C11.3173 0.620537 11.1619 0.556152 10.9998 0.556152C10.8377 0.556152 10.6823 0.620537 10.5677 0.735143C10.4531 0.849748 10.3887 1.00519 10.3887 1.16726V3.31226C10.3887 3.47434 10.4531 3.62978 10.5677 3.74438C10.6823 3.85899 10.8377 3.92337 10.9998 3.92337Z" fill="white"/>
<path d="M10.9998 18.0767C10.8377 18.0767 10.6823 18.141 10.5677 18.2556C10.4531 18.3703 10.3887 18.5257 10.3887 18.6878V20.8328C10.3887 20.9948 10.4531 21.1503 10.5677 21.2649C10.6823 21.3795 10.8377 21.4439 10.9998 21.4439C11.1619 21.4439 11.3173 21.3795 11.4319 21.2649C11.5465 21.1503 11.6109 20.9948 11.6109 20.8328V18.6878C11.6109 18.5257 11.5465 18.3703 11.4319 18.2556C11.3173 18.141 11.1619 18.0767 10.9998 18.0767Z" fill="white"/>
<path d="M5.1332 5.99499C5.25011 6.09511 5.40049 6.14742 5.55429 6.14148C5.70809 6.13554 5.85399 6.07178 5.96283 5.96295C6.07166 5.85411 6.13542 5.70822 6.14136 5.55441C6.1473 5.40061 6.09499 5.25023 5.99487 5.13333L4.47932 3.61777C4.36241 3.51766 4.21203 3.46534 4.05823 3.47128C3.90443 3.47722 3.75853 3.54098 3.64969 3.64982C3.54086 3.75865 3.4771 3.90455 3.47116 4.05835C3.46522 4.21215 3.51753 4.36253 3.61765 4.47944L5.1332 5.99499Z" fill="white"/>
<path d="M16.867 16.005C16.7501 15.9049 16.5997 15.8525 16.4459 15.8585C16.2921 15.8644 16.1462 15.9282 16.0374 16.037C15.9286 16.1459 15.8648 16.2918 15.8589 16.4456C15.8529 16.5994 15.9052 16.7497 16.0053 16.8666L17.5209 18.3822C17.6378 18.4823 17.7882 18.5346 17.942 18.5287C18.0958 18.5228 18.2417 18.459 18.3505 18.3502C18.4594 18.2413 18.5231 18.0954 18.5291 17.9416C18.535 17.7878 18.4827 17.6374 18.3826 17.5205L16.867 16.005Z" fill="white"/>
<path d="M3.92289 11C3.92289 10.838 3.8585 10.6825 3.7439 10.5679C3.62929 10.4533 3.47385 10.3889 3.31178 10.3889H1.16678C1.0047 10.3889 0.84926 10.4533 0.734654 10.5679C0.620049 10.6825 0.555664 10.838 0.555664 11C0.555664 11.1621 0.620049 11.3175 0.734654 11.4321C0.84926 11.5468 1.0047 11.6111 1.16678 11.6111H3.31178C3.47385 11.6111 3.62929 11.5468 3.7439 11.4321C3.8585 11.3175 3.92289 11.1621 3.92289 11Z" fill="white"/>
<path d="M20.8333 10.3889H18.6883C18.5262 10.3889 18.3707 10.4533 18.2561 10.5679C18.1415 10.6825 18.0771 10.838 18.0771 11C18.0771 11.1621 18.1415 11.3175 18.2561 11.4321C18.3707 11.5468 18.5262 11.6111 18.6883 11.6111H20.8333C20.9953 11.6111 21.1508 11.5468 21.2654 11.4321C21.38 11.3175 21.4444 11.1621 21.4444 11C21.4444 10.838 21.38 10.6825 21.2654 10.5679C21.1508 10.4533 20.9953 10.3889 20.8333 10.3889Z" fill="white"/>
<path d="M5.1332 16.005L3.61765 17.5205C3.51753 17.6374 3.46522 17.7878 3.47116 17.9416C3.4771 18.0954 3.54086 18.2413 3.64969 18.3502C3.75853 18.459 3.90443 18.5228 4.05823 18.5287C4.21203 18.5346 4.36241 18.4823 4.47932 18.3822L5.99487 16.8666C6.09499 16.7497 6.1473 16.5994 6.14136 16.4456C6.13542 16.2918 6.07166 16.1459 5.96283 16.037C5.85399 15.9282 5.70809 15.8644 5.55429 15.8585C5.40049 15.8525 5.25011 15.9049 5.1332 16.005Z" fill="white"/>
<path d="M16.867 5.99499L18.3826 4.47944C18.4827 4.36253 18.535 4.21215 18.5291 4.05835C18.5231 3.90455 18.4594 3.75865 18.3505 3.64982C18.2417 3.54098 18.0958 3.47722 17.942 3.47128C17.7882 3.46534 17.6378 3.51766 17.5209 3.61777L16.0053 5.13333C15.9052 5.25023 15.8529 5.40061 15.8589 5.55441C15.8648 5.70822 15.9286 5.85411 16.0374 5.96295C16.1462 6.07178 16.2921 6.13554 16.4459 6.14148C16.5997 6.14742 16.7501 6.09511 16.867 5.99499Z" fill="white"/>
<path d="M10.9998 17.1111C14.3749 17.1111 17.1109 14.3751 17.1109 11C17.1109 7.62495 14.3749 4.88892 10.9998 4.88892C7.62471 4.88892 4.88867 7.62495 4.88867 11C4.88867 14.3751 7.62471 17.1111 10.9998 17.1111Z" fill="white"/>
</g>
<defs>
<clipPath id="clip0_79_345">
<rect width="22" height="22" fill="white"/>
</clipPath>
</defs>
</svg>
