<?xml version="1.0" encoding="iso-8859-1"?>
<!-- Generator: Adobe Illustrator 19.0.0, SVG Export Plug-In . SVG Version: 6.00 Build 0)  -->
<svg version="1.1" id="Layer_1" xmlns="http://www.w3.org/2000/svg" xmlns:xlink="http://www.w3.org/1999/xlink" x="0px" y="0px"
	 viewBox="0 0 512.001 512.001" style="enable-background:new 0 0 512.001 512.001;" xml:space="preserve">
<g>
	<g>
		<path d="M511.378,98.641c-1.729-7.327-7.128-13.235-14.27-15.615l-51.13-17.044l-17.043-51.13
			c-2.38-7.141-8.29-12.541-15.615-14.271c-7.322-1.727-15.024,0.458-20.349,5.78l-61.435,61.432
			c-5.818,5.818-7.85,14.422-5.247,22.228l16.233,48.699l-37.461,37.461c-33.139-26.346-73.902-40.655-116.87-40.655
			c-50.28,0-97.551,19.578-133.104,55.131c-73.394,73.393-73.394,192.815,0,266.212c35.554,35.552,82.825,55.133,133.104,55.133
			c50.28,0,97.551-19.58,133.103-55.133c68.196-68.199,73.009-176.131,14.468-249.96l37.474-37.474l48.7,16.232
			c2.252,0.75,4.567,1.115,6.865,1.115c5.67,0,11.222-2.223,15.36-6.362l61.434-61.432
			C510.92,113.667,513.107,105.966,511.378,98.641z M290.581,426.152c-27.349,27.348-63.71,42.41-102.387,42.41
			c-38.677,0-75.04-15.062-102.388-42.41c-56.457-56.46-56.457-148.323,0-204.778c27.349-27.347,63.711-42.407,102.388-42.407
			c31.34,0,61.157,9.891,85.893,28.191l-31.237,31.237c-16.167-10.395-34.976-15.99-54.656-15.99
			c-27.074,0-52.527,10.544-71.669,29.687c-19.145,19.144-29.689,44.596-29.688,71.672c0,27.073,10.544,52.526,29.687,71.671
			c19.144,19.144,44.596,29.688,71.671,29.688s52.527-10.543,71.672-29.688c34.246-34.246,38.791-87.093,13.683-126.308
			l31.239-31.239C346.547,294.519,341.816,374.916,290.581,426.152z M172.835,339.122c4.241,4.241,9.799,6.362,15.357,6.362
			c5.557,0,11.118-2.121,15.357-6.362l37.956-37.956c8.904,21.083,4.794,46.399-12.357,63.551
			c-10.94,10.94-25.486,16.965-40.956,16.965s-30.015-6.025-40.953-16.963c-10.94-10.94-16.965-25.485-16.965-40.956
			c-0.001-15.47,6.024-30.015,16.965-40.955c10.94-10.94,25.483-16.965,40.953-16.965c7.905,0,15.563,1.583,22.626,4.58
			l-37.984,37.984C164.353,316.887,164.353,330.64,172.835,339.122z M422.939,140.213l-38.396-12.799l-12.799-38.395l27.092-27.092
			L408.2,90.02c2.162,6.486,7.252,11.575,13.737,13.737l28.092,9.366L422.939,140.213z"/>
	</g>
</g>
<g>
</g>
<g>
</g>
<g>
</g>
<g>
</g>
<g>
</g>
<g>
</g>
<g>
</g>
<g>
</g>
<g>
</g>
<g>
</g>
<g>
</g>
<g>
</g>
<g>
</g>
<g>
</g>
<g>
</g>
</svg>
