<svg width="48" height="48" viewBox="0 0 48 48" fill="none" xmlns="http://www.w3.org/2000/svg">
<path d="M24 44C35.046 44 44 35.046 44 24C44 12.954 35.046 4 24 4C12.954 4 4 12.954 4 24C4 35.046 12.954 44 24 44Z" stroke="white" stroke-width="1.5" stroke-linecap="round" stroke-linejoin="round"/>
<g clip-path="url(#clip0_316_54)">
<path d="M31.8462 17.1925C32.1216 17.1925 32.3857 17.3019 32.5805 17.4967C32.7752 17.6914 32.8846 17.9556 32.8846 18.231C32.8846 18.5064 32.7752 18.7705 32.5805 18.9653C32.3857 19.16 32.1216 19.2695 31.8462 19.2695H30.8077L30.8046 19.3432L29.8357 32.9169C29.7984 33.4409 29.5639 33.9313 29.1795 34.2893C28.7951 34.6473 28.2893 34.8464 27.764 34.8464H19.3119C18.7866 34.8464 18.2808 34.6473 17.8964 34.2893C17.512 33.9313 17.2775 33.4409 17.2402 32.9169L16.2713 19.3442C16.2697 19.3193 16.269 19.2944 16.2692 19.2695H15.2308C14.9554 19.2695 14.6912 19.16 14.4965 18.9653C14.3017 18.7705 14.1923 18.5064 14.1923 18.231C14.1923 17.9556 14.3017 17.6914 14.4965 17.4967C14.6912 17.3019 14.9554 17.1925 15.2308 17.1925H31.8462ZM28.7277 19.2695H18.3493L19.313 32.7695H27.764L28.7277 19.2695ZM25.6154 14.0771C25.8908 14.0771 26.1549 14.1866 26.3497 14.3813C26.5444 14.5761 26.6538 14.8402 26.6538 15.1156C26.6538 15.391 26.5444 15.6552 26.3497 15.8499C26.1549 16.0447 25.8908 16.1541 25.6154 16.1541H21.4615C21.1861 16.1541 20.922 16.0447 20.7272 15.8499C20.5325 15.6552 20.4231 15.391 20.4231 15.1156C20.4231 14.8402 20.5325 14.5761 20.7272 14.3813C20.922 14.1866 21.1861 14.0771 21.4615 14.0771H25.6154Z" fill="white"/>
</g>
<defs>
<clipPath id="clip0_316_54">
<rect width="24.9231" height="24.9231" fill="white" transform="translate(11.0769 12)"/>
</clipPath>
</defs>
</svg>
