<svg width="22" height="23" viewBox="0 0 22 23" fill="none" xmlns="http://www.w3.org/2000/svg">
<path d="M10.9997 2.33333C5.93967 2.33333 1.83301 6.44 1.83301 11.5C1.83301 16.56 5.93967 20.6667 10.9997 20.6667C16.0597 20.6667 20.1663 16.56 20.1663 11.5C20.1663 6.44 16.0597 2.33333 10.9997 2.33333ZM10.9997 6C12.7688 6 14.208 7.43917 14.208 9.20833C14.208 10.9775 12.7688 12.4167 10.9997 12.4167C9.23051 12.4167 7.79134 10.9775 7.79134 9.20833C7.79134 7.43917 9.23051 6 10.9997 6ZM10.9997 18.8333C9.13884 18.8333 6.93884 18.0817 5.37134 16.1933C6.97698 14.9336 8.95883 14.2489 10.9997 14.2489C13.0405 14.2489 15.0224 14.9336 16.628 16.1933C15.0605 18.0817 12.8605 18.8333 10.9997 18.8333Z" fill="white"/>
</svg>
