<!DOCTYPE svg PUBLIC "-//W3C//DTD SVG 1.1//EN" "http://www.w3.org/Graphics/SVG/1.1/DTD/svg11.dtd">
<!-- Uploaded to: SVG Repo, www.svgrepo.com, Transformed by: SVG Repo Mixer Tools -->
<svg width="800px" height="800px" viewBox="0 0 24 24" fill="none" xmlns="http://www.w3.org/2000/svg">
<g id="SVGRepo_bgCarrier" stroke-width="0"/>
<g id="SVGRepo_tracerCarrier" stroke-linecap="round" stroke-linejoin="round"/>
<g id="SVGRepo_iconCarrier"> <path d="M4 20H20M6 16H9C9.55228 16 10 15.5523 10 15V9C10 8.44772 9.55228 8 9 8H6C5.44772 8 5 8.44772 5 9V15C5 15.5523 5.44772 16 6 16ZM15 16H18C18.5523 16 19 15.5523 19 15V5C19 4.44772 18.5523 4 18 4H15C14.4477 4 14 4.44772 14 5V15C14 15.5523 14.4477 16 15 16Z" stroke="#ffffff" stroke-width="2" stroke-linecap="round" stroke-linejoin="round"/> </g>
</svg>