<svg width="22" height="23" viewBox="0 0 22 23" fill="none" xmlns="http://www.w3.org/2000/svg">
<path d="M11 2.5625C9.23233 2.5625 7.50436 3.08668 6.0346 4.06874C4.56483 5.05081 3.41929 6.44665 2.74283 8.07977C2.06637 9.71288 1.88938 11.5099 2.23424 13.2436C2.57909 14.9773 3.43031 16.5698 4.68024 17.8198C5.93017 19.0697 7.52268 19.9209 9.25638 20.2658C10.9901 20.6106 12.7871 20.4336 14.4202 19.7572C16.0534 19.0807 17.4492 17.9352 18.4313 16.4654C19.4133 14.9956 19.9375 13.2677 19.9375 11.5C19.933 9.13102 18.9899 6.86037 17.3148 5.18525C15.6396 3.51013 13.369 2.56704 11 2.5625ZM12.0313 15.625H11.6875V16.3125C11.6875 16.4948 11.6151 16.6697 11.4861 16.7986C11.3572 16.9276 11.1823 17 11 17C10.8177 17 10.6428 16.9276 10.5139 16.7986C10.3849 16.6697 10.3125 16.4948 10.3125 16.3125V15.625H8.9375C8.75517 15.625 8.5803 15.5526 8.45137 15.4236C8.32244 15.2947 8.25 15.1198 8.25 14.9375C8.25 14.7552 8.32244 14.5803 8.45137 14.4514C8.5803 14.3224 8.75517 14.25 8.9375 14.25H12.0313C12.3048 14.25 12.5671 14.1413 12.7605 13.948C12.9539 13.7546 13.0625 13.4923 13.0625 13.2188C13.0625 12.9452 12.9539 12.6829 12.7605 12.4895C12.5671 12.2962 12.3048 12.1875 12.0313 12.1875H9.96875C9.33058 12.1875 8.71854 11.934 8.26728 11.4827C7.81602 11.0315 7.5625 10.4194 7.5625 9.78125C7.5625 9.14307 7.81602 8.53103 8.26728 8.07977C8.71854 7.62852 9.33058 7.375 9.96875 7.375H10.3125V6.6875C10.3125 6.50516 10.3849 6.3303 10.5139 6.20136C10.6428 6.07243 10.8177 6 11 6C11.1823 6 11.3572 6.07243 11.4861 6.20136C11.6151 6.3303 11.6875 6.50516 11.6875 6.6875V7.375H13.0625C13.2448 7.375 13.4197 7.44743 13.5486 7.57636C13.6776 7.7053 13.75 7.88016 13.75 8.0625C13.75 8.24484 13.6776 8.4197 13.5486 8.54864C13.4197 8.67757 13.2448 8.75 13.0625 8.75H9.96875C9.69525 8.75 9.43295 8.85865 9.23955 9.05205C9.04615 9.24544 8.9375 9.50775 8.9375 9.78125C8.9375 10.0548 9.04615 10.3171 9.23955 10.5105C9.43295 10.7039 9.69525 10.8125 9.96875 10.8125H12.0313C12.6694 10.8125 13.2815 11.066 13.7327 11.5173C14.184 11.9685 14.4375 12.5806 14.4375 13.2188C14.4375 13.8569 14.184 14.469 13.7327 14.9202C13.2815 15.3715 12.6694 15.625 12.0313 15.625Z" fill="#171616"/>
</svg>
