<svg width="12" height="15" viewBox="0 0 12 15" fill="none" xmlns="http://www.w3.org/2000/svg">
<path d="M2.318 1.687C3.234 1.271 4.536 1 6 1C7.464 1 8.766 1.27 9.682 1.687C10.644 2.125 11 2.627 11 3C11 3.374 10.644 3.875 9.682 4.313C8.766 4.729 7.464 5 6 5C4.536 5 3.234 4.73 2.318 4.313C1.356 3.875 1 3.373 1 3C1 2.626 1.356 2.125 2.318 1.687ZM11 4.698V6C11 6.374 10.644 6.875 9.682 7.313C8.766 7.729 7.464 8 6 8C4.536 8 3.234 7.73 2.318 7.313C1.356 6.875 1 6.373 1 6V4.698C1.271 4.9 1.58 5.076 1.904 5.223C2.978 5.711 4.427 6 6 6C7.573 6 9.022 5.711 10.096 5.223C10.4151 5.0806 10.7182 4.90461 11 4.698ZM12 3C12 1.993 11.125 1.245 10.096 0.777C9.022 0.289 7.573 0 6 0C4.427 0 2.978 0.289 1.904 0.777C0.875 1.245 0 1.993 0 3V12C0 13.007 0.875 13.755 1.904 14.223C2.978 14.71 4.427 15 6 15C7.573 15 9.022 14.711 10.096 14.223C11.125 13.755 12 13.007 12 12V3ZM11 7.698V9C11 9.374 10.644 9.875 9.682 10.313C8.766 10.729 7.464 11 6 11C4.536 11 3.234 10.73 2.318 10.313C1.356 9.875 1 9.373 1 9V7.698C1.271 7.9 1.58 8.076 1.904 8.223C2.978 8.71 4.427 9 6 9C7.573 9 9.022 8.711 10.096 8.223C10.4151 8.0806 10.7182 7.90461 11 7.698ZM11 10.698V12C11 12.374 10.644 12.875 9.682 13.313C8.766 13.729 7.464 14 6 14C4.536 14 3.234 13.73 2.318 13.313C1.356 12.875 1 12.373 1 12V10.698C1.271 10.9 1.58 11.076 1.904 11.223C2.978 11.71 4.427 12 6 12C7.573 12 9.022 11.711 10.096 11.223C10.42 11.076 10.729 10.9 11 10.698Z" fill="black"/>
</svg>
