<svg width="40" height="40" viewBox="0 0 40 40" fill="none" xmlns="http://www.w3.org/2000/svg">
<path d="M20 39.5C23.8567 39.5 27.6269 38.3563 30.8336 36.2137C34.0404 34.071 36.5397 31.0255 38.0157 27.4623C39.4916 23.8992 39.8777 19.9784 39.1253 16.1957C38.3729 12.4131 36.5157 8.93854 33.7886 6.21142C31.0615 3.48429 27.5869 1.6271 23.8043 0.874686C20.0216 0.122275 16.1008 0.50844 12.5377 1.98435C8.97452 3.46026 5.92903 5.95962 3.78635 9.16638C1.64366 12.3731 0.500004 16.1433 0.500004 20C0.509914 25.1687 2.56755 30.1228 6.22237 33.7776C9.87718 37.4324 14.8313 39.4901 20 39.5ZM12.575 17.8062L18.9313 11.4312C19.218 11.154 19.6012 10.999 20 10.999C20.3988 10.999 20.782 11.154 21.0688 11.4312L27.425 17.8063C27.6835 18.0916 27.8225 18.4654 27.813 18.8503C27.8035 19.2353 27.6464 19.6018 27.3741 19.8741C27.1018 20.1464 26.7353 20.3035 26.3504 20.313C25.9654 20.3224 25.5916 20.1835 25.3063 19.925L21.5 16.1187L21.5 27.5C21.5 27.8978 21.342 28.2794 21.0607 28.5607C20.7794 28.842 20.3978 29 20 29C19.6022 29 19.2206 28.842 18.9393 28.5607C18.658 28.2794 18.5 27.8978 18.5 27.5L18.5 16.1187L14.6938 19.925C14.4084 20.1835 14.0346 20.3224 13.6497 20.313C13.2647 20.3035 12.8982 20.1464 12.6259 19.8741C12.3536 19.6018 12.1965 19.2353 12.187 18.8503C12.1776 18.4654 12.3165 18.0916 12.575 17.8062Z" fill="#4FD24C"/>
</svg>
